<svg xmlns="http://www.w3.org/2000/svg" fill="none" viewBox="0 0 858 178">
  <path fill="#2d0e06"
        d="M442.9.2q59.3-.5 118.4.1c2.2.7 4.5.3 6.8.5l24.2.5c2.3 1.1 5.3.3 7.8.7 2.9.4 6-.2 8.8.7 8.8.1 16.5.5 25.2 1.8 4.6.7 9.7 1 14.2-.3 8-.8 16-.8 23.7 1.5 9.6-.2 18 .6 27.6 1.2 11.9.5 23.7 1.8 35.6 2.4 4 1.1 8 .2 11.7 1.4 4 0 8.2.5 12.3.5 3.6 1.1 7.3.4 10.9 1.3s8.5.1 12 1.3c2 .2 4.3 0 6.3 1 8.5.1 16.2 1.3 24.8 1.4 2.2 1.3 5.4.2 7.7 1.5 1.7.3 3.3.3 4.9 1.1 8.8 3 17 6.7 23.4 13.6a33.8 33.8 0 0 1-12.5 53l2 11.1q1.8 5.8 5.8 10.6c3.5 4 6.6 7.4 11.7 9.3-3 1.8-5.2 4.3-8 6.2a53 53 0 0 1-23 7.5c-8.3.8-16-.6-24.1-2-9.5-1.2-19.4-3.6-29-4.4-2.3-1.2-5.7 0-8-1.4-9.4-.5-18.7-2.3-28.2-2.6-4-1.3-8.6 0-12.6-1.4l-9.5-.5c-5.5-1.2-11.2-.6-16.6-1.6l-11.2-.5c-7-1-15-.6-22-1.4-8-.4-16.4-.2-24.4-1-9.7-.4-20-.3-29.5-1-18.8 0-37.7-.6-56.6-.3-11.5.3-23.5.3-35 .5q-12.7.6-25.6.8c-3 1-6.5.3-9.7.6-4.6.6-9.5-.2-14 .8-11.8 0-23.4 1.3-35.2 1.6-5.2 1-11.1.3-16.1 1.5q-4.6.4-8.8.4c-5 1.2-10.2.4-15 1.6-3 0-6.1.5-9.2.4-3.3 1.5-7.4 0-10.6 1.5-6.1 0-11.2 1.6-17.2 1.5-3.6 1-7.2.5-10.8 1.4-7.5.6-14.8 2.2-22.3 2.7-2.8 1-6 .4-8.7 1.4-7.7.7-15.8 3-23.4 3.5-2.4 1.2-5.4.4-7.7 1.5-8 1-14.7 2.6-23 3.8-9.5 1.5-16.4 3.5-26 5-17.4 4-40.1 8.3-58 13.5-10.8 2.8-22.2 6.5-33 9-3-.6-4.3 1.4-6.7 2.8-6.8 2.6-13 5.3-20.4 6.1-2.4.2-4.7.2-7 1-4-1.2-8.3-.2-12.2-1.5-5.7-1.2-12.2-3.8-15.8-8.7a68 68 0 0 1-32.2 12.6c-4.5 1.2-11.2 0-16-.4a158 158 0 0 1-12-4c-8-3.9-15-9.7-18-18.4a58 58 0 0 1-3.2-30A114 114 0 0 1 9.4 96a174 174 0 0 1 26.5-40.7c3-4 6.5-7.4 9.8-11 3.2-2.9 5.6-6.5 9-8.9 13.7-12.8 30-23.8 48.2-28.9q7.4-2.7 15.4-2.7c3.5-1 7.6-.2 11 .3 6.7 1.4 12.7 5.5 19 7.2Q159 15.2 166 24c3-1 6-.8 8.9-1.6 6.8-.7 13.5-2 20.4-2.6 3-1 6.5-.4 9.6-1.5 3-.2 6-.2 9-1 5.3 0 9-1.3 14.5-1.5 2.9-1.3 6.6 0 9.4-1.5 2.4 0 5 0 7.2-.9q4.9-.1 9.6-1c3.7-.5 7.9-.2 11.5-1 9 0 17-1.9 26-2.6 5-1 10.5-.5 15.5-1.4q8.1 0 16.7-.5c5-1.2 11-.4 16.3-1.7 9-.5 17.5-1.4 26.7-1.3 6.9-1 14.8-.6 22-1l.6-.6 22.2-.5c1.4-.9 3.4-.3 5-.5l23.4-.4q1.2-.6 2.4-.6"/>
  <path fill="#fd872f"
        d="M431.8 10.2c-2 6-4.4 12-5.5 18.1-6.7-.5-13.5.1-20.2.5-1 4.2-2.4 8.2-3 12.4 6.6-.2 13-.3 19.4-1.2-2.6 5.4-3.4 12.5-6 17.8-5.6-.2-11.2.3-16.7 0q-2.1 6.7-3.7 13.2c5 1 11.7-.2 17 0 1.7-.3 3.8.3 5-1.2q1 1.5-.2 2.8c-1.5 5.3-2.8 11-4.3 16.2-5.1-.2-10.2.4-15.3.4-3.7 1-7.4.6-11.2 1-6.3 0-12.3 1-18.6.7.9-1.7 2-3.2 2-5.2l4-15.3c1.7-9 4.4-17.9 6.3-27 2.3-8 4-15.9 6.5-24 .7-2.2 0-5 0-7.3a443 443 0 0 0 44.5-2m35.3-.6c6.8.7 13.8 3.5 17.7 9.3a21 21 0 0 1 1.3 17.7c-2.5 8.4-9 14.2-16.8 17.6 0 4 1.2 7.8 2.2 11.6q1.3 6.3 4.5 12c1.5 2 2.2 4.4 4.5 6 1.4-10 4.5-19.5 6.7-29.3 2.8-12 6.3-23.7 8.8-35.7 1-3.3 1.6-6.5-.2-9.7 9.3.3 18.5 0 27.8 0-.5 11.4 1.5 22.4 1.5 34l2.4-3L542 13.5c.7-1 .5-2.7.7-4q14.1.4 28.2.4c-1.8 6-2.4 12.1-4.3 18-5 19.5-9.5 38.5-14.2 58l-21.4-.2q1.5-2.5 2.3-5.2c.9-4.5 2.6-8.8 3.4-13.2 1.3-4.5 1.8-9.4 3.3-13.8.8-2.5.3-4.8 1.7-7-2.6 3.4-4 7.5-6.4 11.2-5.5 9.2-10.8 18.6-17 27.3q-3 0-5.8.3c0-6.2-1.7-12-2.1-18-1.2-6.5-1.6-13.2-2.4-19.8-2.2 10.3-4 20.8-7 31-1 2.2-.5 4.4-.2 6.8q-8.7-.2-17.4.3l-1 1.3c-4 .6-7.3 2.5-11.4 2.3-6.3.3-12.7-.7-16.3-6.5-4.2-7.5-5.4-17.3-7.7-25.5-1.5 4.6-2.2 9.4-3.4 14.1-.6 5.7-3.8 10.1-2 16-7.5-.4-15.3.3-23 .8q2-6.3 3.7-12.7c1.5-7.9 4-15.5 5.5-23.4 3-9.6 4.5-19.5 7.3-29.2.8-4.7 3-8 0-12.8 10.6.6 21.5-1.6 31.9-.6m-83.2 2.7c-1 6.2-4 12.2-4.6 18.6q-6.9 0-13.4.6c-1 5.8-3.5 11.3-4.4 17.2-2.8 12-6.3 24-9 36-.4 2.6.3 4.8.6 7.4l-10 .4c-5 1.1-10 .4-14.8 1.6 5.8-20 10.4-40 15.6-60.2q-7 .1-14 .5 3-9.1 4.7-19 8.3 0 16.4-.4c5.2-1.2 10.6-.5 15.9-1.4 5.7-.7 11.4-.2 17-1.4m206.6-1c4 .5 8.5-.3 12.5.8l17 .3c-1.3 2.1-2.8 3.7-2.6 6.4v62c0 3 .5 5.2 1.5 8-8.4-1.8-17.3-1.5-26-1.7 3.9-2.9 3.5-8.2 4-12.6-5 0-10.1-.5-15.3-.5-2 4.1-4.4 8.2-5.8 12.6l-21.2-.3c5.2-12.7 12.7-23.9 18.9-36a567 567 0 0 0 18-34.4zM118 12.6c4.6 0 10-.4 14.2 1.7A21 21 0 0 1 143 24.5c3.2 10.5 3 21.5 1 32.2-1.2 7-4.2 13.6-6.4 20.3a128 128 0 0 1-25.3 40.5v1.2q6.6 5.4 14.7 8c5.8 1 10.9 2 16.8.7q11.5-1.7 22.5-5.4l-6 7a69 69 0 0 1-29.8 21 54 54 0 0 1-24.3 2A29 29 0 0 1 89 141c-3.3 1.4-5.8 4-9 5.5-11.2 7-24 11.2-37.3 9.4a29 29 0 0 1-19-14c-6.5-15.9-2.2-34.3 4.3-49.4 4.4-8.6 7.6-16.9 13.2-24.9 3.4-4.6 6.3-9.4 10.2-13.6 2.4-3.6 5.8-6.3 8.4-9.7C67 37.5 74.7 29.5 83.6 25c4-2.6 7.8-5.2 12.3-6.9a61 61 0 0 1 22.2-5.4m545 .5q7.4 1.6 13.7 5.5c-1 6.5-4.2 12.8-4.7 19.5-3-4.5-6.4-7.6-12-8-3.2-.2-8.2.4-9 4.3-1.4 3 1.6 5.6 4 7.1 4 2.5 8 5 11.4 8.5q5.4 6 6 14.4a29 29 0 0 1-8 17.5c-4.2 5-11 8-17.4 8.3-5 1.4-11.1 0-16-.6-3.6-1.2-8.8-3-10.8-6.3.4-7.3 4.3-14.4 5.7-21.6 1 7 9.4 12 16.2 11.2 3.2-.5 6.8-1.6 6.7-5.5.5-4.3-2.5-6-5.4-8.4-6.2-4.4-12.2-8.6-14.7-16.2-2.4-9.2 2-18.8 8.9-24.8 7-4.9 17-6 25.4-5m19.6 1.7c4 2 8.2.8 12.3 2 6.5 0 12.7 1.3 19 1.3 6.7 1 13.4.7 20 1.7-1.7 4.5-3 9.1-5 13.6l-1 4c-4.3-.2-8.7-.8-13.2-.8-5.5 17-10.2 34.6-15 52a8 8 0 0 0 .5 4.6q-2.5-.9-5.1-1-9.6-.1-19-1.2c2-2.7 2.5-5.7 3.6-8.8 5.3-15.5 9.3-31.4 13-47.3-5.1 0-10-.8-15.2-.8q2.4-6.7 4.4-13.8c.7-1.8.5-3.5.7-5.5"/>
  <path fill="#fd872f"
        d="M295 17.8q9-1.2 18-.6c5.3.8 10 3 13 7.3 2.6 2.8 2.6 5.8 3.7 9.1.4 7.2-2.3 14.4-6.2 20.3-3 3.5-7 7.7-11.7 8.5l-.2.8a63 63 0 0 0 5 18.8c2.6 4.7 4.2 9.6 9.4 11.7-5.5 2.6-11.7 6-18 4.8-4.6-.4-10.1-3.2-12-7.8q-3.2-7.5-4.6-15.4c-1-2.7-.3-5-2.3-7.2-1.4 8-3.1 15.5-5 23.4q-1 3 0 6.4c-4.8-.3-9.3 1-14 1.2-3 0-5.7.7-8.6 1 2-12.7 6-24.8 8.3-37.3 3-12.6 5.8-26.2 8.9-38.3q-1.3-2.5-1.6-5.2c6 .5 12-1.4 18-1.5M260 21c-.5 2-1.5 3.4-1.3 5.5l.3 46c.8 9 .5 18.3 1 27.5-8.3 1-17 2.5-25.4 3.3l1.9-3.4c.3-3.4 1.5-6.6 1.7-10l-15.2.4a66 66 0 0 0-6.4 15.4q-4.6 0-8.7 1l-15.3 2.5q4-6.3 7-13.2c3.4-5.4 5.4-11.2 8.4-16.7 2.8-6.2 6.2-12 9.2-18 1.6-4.7 4.4-9 6.2-13.6 2.2-5.3 5-10.4 7.2-15.7 1-2.5.2-4.5-.4-7 5 0 9.8-1.2 14.7-1.7 5-1.2 10-1.2 15-2.3m478-1c5.4 1.4 10.8.5 16 1.6q14 1.5 27.7 2.3-1.6 3.7-2.5 7.6c-.7 3.7-2.5 7-2.7 10.8-4.3-1.8-8.7-1-13.2-2q-4-.4-8-.4c-.7 3.8-2.3 7.3-3 11q9.8 1 19.4 1.1c-2.5 5.1-4.1 10.8-6 16.2q-8.7-1.3-17.8-1.5a80 80 0 0 0-3.6 13c7.4.5 14.5 1.5 22 1.4-1.2 6.2-4.4 12-5.7 18.1q-3.7-1-7.3-1c-12.2-1.4-24.7-3-37-3.5q1.5-2.3 2.3-5 3-9.2 5.5-18.5c5-15.4 9-31.2 13.7-46.7zm49.6 3.5c8.2 1.3 16.6 1.2 24.8 2.3a38 38 0 0 1 14.7 4c4.8 2.2 9 6.5 10.5 11.7.9 5.3.9 10.6-1.6 15.5-3 7.8-9.3 14-17.7 15.2q.8 5.7 2 11c1 6 2.8 12.3 5.6 17.8q3.8 6.6 10 10.5-4.6 1.7-9.6 1.8c-4.6 0-10 .4-14.3-1.5a24 24 0 0 1-9-7c-4.7-6.5-4.2-12.9-6-20.3-.3-3.7-1.3-7.4-1.7-11.2-2.2 5.1-3.1 10.7-5.2 16-1.2 4.3-4 8.6-3 13-3.3-1.9-7-1-10.8-1.8-3.5-.8-7.5-.2-10.8-1.4 3.8-7.9 5.7-16.2 8-24.5 1.6-5.9 4.3-11.3 5.6-17.2 3-9.5 5.9-19.5 8.6-29z"/>
  <path fill="#2d0e06"
        d="M453.9 26c3.2 0 7.8-1 10.2 1.4 2.7 4 1.2 8.3-1 12.1-3.2 4.2-8.3 6-13.5 5.6 1-2.7 1-5.6 2-8.4.7-3.6 2-7 2.3-10.8"/>
  <path fill="#fd872f"
        d="M214.8 27a29 29 0 0 0-2.4 8q-2.5 7.5-4 15.3l-5 20a96 96 0 0 1-9.1 26.4 36 36 0 0 1-13.4 12.5c-5.3 2-10 4.7-15.8 4.8-5.1.2-11.4 1-16.1-1.3q-3-1.5-5-4.2c-3.5-4.7-3.8-10.3-3-16a139 139 0 0 1 6-23q3.7-13 6.6-26c.7-2.8 0-5.4-.4-8.2 3.5 0 6.8 0 10-1 5.6-.3 10.7-2 16.2-1.6l-2 3c-2.3 6-3.1 12-5 18-3 10.4-5.3 21-8.5 31.3-.5 3.6-1.7 7.4 1.6 10 3.8.6 7.6.2 10-3 3-3.5 3.4-7.4 4.9-11.5 2.5-12.9 6.2-26 8.6-39 1-3.5 1.5-7.2-.5-10.5 3 .1 5.6-1 8.6-1 6-1 11.7-1.4 17.7-3"/>
  <path fill="#2d0e06"
        d="M296.8 34.3c2.8.2 6.3-1 8.5 1 3 2.6 2.8 7.4 1.2 10.7-2 6.2-8.8 9.2-15 8.8L295 41c1-2.3.3-4.6 2-6.7m-188.8 3c4.9.3 7.3 4.8 7.5 9.2.6 9.3-2.4 18.4-5 27.3q-6 14.8-15.8 27.5c-5-.3-10.3-1.3-15.7.2q-3.9 1.5-7.2 3.8c-3.7 2.4-5.5 5.7-8.4 8.7 1.8.5 3.8.7 5.3 1.8 3.5 2.5 6.9 4.6 9 8.5-4.6 3-10.3 4-15.5 2a11 11 0 0 1-5.6-7c-.8-5.5-.4-11.3 0-16.8a106 106 0 0 1 17.3-38A96 96 0 0 1 91.6 44c4.6-3.3 10.8-6.8 16.5-6.7m490.3.6c.4 6.7-.2 13.4-.1 20.1q-5 .5-10.2.2c3-7 7.2-13.4 10.3-20.3m205.8 4.2q4 0 7.7 1.2c3 2.2 4.7 6 3 9.5-2 7-10 8.7-16.3 7.7 2.3-6 3.6-12.3 5.6-18.4m-565 8.7q.5 11.5-1 23-4.8.3-9.8 1.1v-1.3q5-10.2 9.4-20.5z"/>
  <path fill="#fd872f"
        d="M418 99.2c6.7 0 13.7-1 20.3.1-7.3 1-15 .2-22.1 1.5-9 .1-17.3 1.1-26 2-7 0-13.4 1.2-20.2 1.4-4.4 1.3-9.4.2-13.8 1.5-2.7.4-5.5.2-8 1q-52.2 6-103.7 15.7c-20.5 4.3-45 9.3-65.2 14.5-7 1.3-13.8 4-20.7 6 5.7-4 10-10.3 14.2-15.8 6.4 0 12.5-2.6 18.9-3.2 16.9-3.5 33-6 50.2-9l35.2-4.7c8.7-.5 17.7-2 26.5-2.4 5.2-.9 10.3-.8 15.5-1.7 7.3-.2 14.4-1.4 21.8-1.4 5.6-1.2 11.5-.3 17.2-1.5l24-1.6c5.9-.8 12-.4 18-1.3 6-.5 12-.2 18-1"/>
</svg>